# xmcd CD database file
#
# Track frame offsets:
#	150
#	16113
#	38570
#
# Disc length: 723 seconds
#
# Revision: 3
# Processed by: cddbd v1.5PL3 Copyright (c) Steve Scherf et al.
# Submitted via: CDex 1.50beta9
#
DISCID=1302d103
DTITLE=Sleepin' Johnnyfish - テレスコープ
DYEAR=2001
DGENRE=Pop
TTITLE0=テレスコープ
TTITLE1=マーメイド
TTITLE2=テレスコープ(カラオケ)
EXTD=YEAR: 2001
EXTT0=
EXTT1=
EXTT2=
PLAYORDER=
